<svg width="0" height="0" class="hidden">
  <symbol fill="none" xmlns="http://www.w3.org/2000/svg" viewBox="0 0 16 16" id="search">
    <path d="M7.33333 12.6667C10.2789 12.6667 12.6667 10.2789 12.6667 7.33333C12.6667 4.38781 10.2789 2 7.33333 2C4.38781 2 2 4.38781 2 7.33333C2 10.2789 4.38781 12.6667 7.33333 12.6667Z" stroke="currentColor" stroke-width="1.3" stroke-linecap="round" stroke-linejoin="round"></path>
    <path d="M13.9996 14L11.0996 11.1" stroke="currentColor" stroke-width="1.3" stroke-linecap="round" stroke-linejoin="round"></path>
  </symbol>
 <symbol fill="none" xmlns="http://www.w3.org/2000/svg" viewBox="0 0 27 27" id="instagram">
    <path d="M20.0443 4.52107C19.7342 4.52107 19.431 4.61303 19.1731 4.78532C18.9153 4.95762 18.7143 5.20251 18.5956 5.48902C18.477 5.77554 18.4459 6.09081 18.5064 6.39497C18.5669 6.69913 18.7162 6.97852 18.9355 7.19781C19.1548 7.4171 19.4342 7.56644 19.7384 7.62694C20.0425 7.68744 20.3578 7.65639 20.6443 7.53771C20.9308 7.41903 21.1757 7.21806 21.348 6.9602C21.5203 6.70235 21.6123 6.39919 21.6123 6.08907C21.6123 5.67321 21.4471 5.27438 21.153 4.98033C20.859 4.68627 20.4601 4.52107 20.0443 4.52107ZM26.0549 7.6832C26.0295 6.59906 25.8265 5.52642 25.4539 4.508C25.1216 3.63663 24.6045 2.84759 23.9381 2.1952C23.2911 1.52544 22.5002 1.01159 21.6253 0.692534C20.6096 0.308584 19.5358 0.100888 18.4501 0.0784C17.0651 -7.30157e-08 16.6208 0 13.0667 0C9.51254 0 9.06827 -7.30157e-08 7.6832 0.0784C6.59756 0.100888 5.52373 0.308584 4.508 0.692534C3.63473 1.01482 2.84453 1.52823 2.1952 2.1952C1.52544 2.84223 1.01159 3.63311 0.692534 4.508C0.308584 5.52373 0.100888 6.59756 0.0784 7.6832C-7.30157e-08 9.06827 0 9.51254 0 13.0667C0 16.6208 -7.30157e-08 17.0651 0.0784 18.4501C0.100888 19.5358 0.308584 20.6096 0.692534 21.6253C1.01159 22.5002 1.52544 23.2911 2.1952 23.9381C2.84453 24.6051 3.63473 25.1185 4.508 25.4408C5.52373 25.8248 6.59756 26.0325 7.6832 26.0549C9.06827 26.1333 9.51254 26.1333 13.0667 26.1333C16.6208 26.1333 17.0651 26.1333 18.4501 26.0549C19.5358 26.0325 20.6096 25.8248 21.6253 25.4408C22.5002 25.1218 23.2911 24.6079 23.9381 23.9381C24.6075 23.2882 25.125 22.4984 25.4539 21.6253C25.8265 20.6069 26.0295 19.5343 26.0549 18.4501C26.0549 17.0651 26.1333 16.6208 26.1333 13.0667C26.1333 9.51254 26.1333 9.06827 26.0549 7.6832ZM23.7029 18.2933C23.6934 19.1228 23.5432 19.9446 23.2587 20.7237C23.05 21.2924 22.7149 21.8062 22.2787 22.2264C21.8549 22.6583 21.3421 22.9927 20.776 23.2064C19.9968 23.4909 19.175 23.6412 18.3456 23.6507C17.0389 23.716 16.5555 23.7291 13.1189 23.7291C9.6824 23.7291 9.19894 23.7291 7.89227 23.6507C7.03103 23.6668 6.17347 23.5342 5.35734 23.2587C4.81609 23.034 4.32684 22.7005 3.92 22.2787C3.4863 21.8589 3.1554 21.3447 2.95307 20.776C2.63405 19.9857 2.45711 19.1452 2.4304 18.2933C2.4304 16.9867 2.352 16.5032 2.352 13.0667C2.352 9.63014 2.352 9.14667 2.4304 7.84C2.43626 6.99205 2.59106 6.15172 2.88773 5.35734C3.11777 4.80581 3.47085 4.31417 3.92 3.92C4.31698 3.47073 4.8076 3.11391 5.35734 2.87467C6.15382 2.58726 6.99328 2.43704 7.84 2.4304C9.14667 2.4304 9.63014 2.352 13.0667 2.352C16.5032 2.352 16.9867 2.352 18.2933 2.4304C19.1228 2.43991 19.9446 2.59014 20.7237 2.87467C21.3175 3.09504 21.8505 3.45332 22.2787 3.92C22.7069 4.32138 23.0415 4.81211 23.2587 5.35734C23.5491 6.15301 23.6994 6.993 23.7029 7.84C23.7683 9.14667 23.7813 9.63014 23.7813 13.0667C23.7813 16.5032 23.7683 16.9867 23.7029 18.2933ZM13.0667 6.36347C11.7415 6.36605 10.4468 6.76138 9.34614 7.49951C8.24552 8.23764 7.38839 9.28543 6.88304 10.5105C6.3777 11.7356 6.24682 13.083 6.50693 14.3824C6.76705 15.6818 7.4065 16.875 8.34448 17.8112C9.28245 18.7473 10.4769 19.3844 11.7768 19.642C13.0767 19.8996 14.4239 19.7661 15.648 19.2584C16.872 18.7506 17.9182 17.8915 18.6542 16.7894C19.3901 15.6874 19.7829 14.3919 19.7829 13.0667C19.7847 12.1848 19.612 11.3113 19.275 10.4964C18.9379 9.6815 18.443 8.94127 17.8188 8.31831C17.1947 7.69534 16.4535 7.20193 15.6379 6.86644C14.8224 6.53096 13.9485 6.36002 13.0667 6.36347ZM13.0667 17.4179C12.2061 17.4179 11.3648 17.1627 10.6493 16.6846C9.93372 16.2064 9.37602 15.5269 9.04669 14.7318C8.71735 13.9367 8.63119 13.0618 8.79908 12.2178C8.96697 11.3737 9.38138 10.5984 9.98991 9.98991C10.5984 9.38138 11.3737 8.96697 12.2178 8.79908C13.0618 8.63119 13.9367 8.71735 14.7318 9.04669C15.5269 9.37602 16.2064 9.93372 16.6846 10.6493C17.1627 11.3648 17.4179 12.2061 17.4179 13.0667C17.4179 13.6381 17.3053 14.2039 17.0867 14.7318C16.868 15.2597 16.5475 15.7394 16.1434 16.1434C15.7394 16.5475 15.2597 16.868 14.7318 17.0867C14.2039 17.3053 13.6381 17.4179 13.0667 17.4179Z" fill="currentColor"></path>
  </symbol>
  <symbol fill="none" xmlns="http://www.w3.org/2000/svg" viewBox="0 0 28 28" id="twitter">
    <path d="M25 4.99998C24.0424 5.67546 22.9821 6.19209 21.86 6.52999C21.2577 5.8375 20.4573 5.34668 19.567 5.12391C18.6767 4.90115 17.7395 4.95718 16.8821 5.28444C16.0247 5.6117 15.2884 6.19439 14.773 6.9537C14.2575 7.71302 13.9877 8.61232 14 9.52998V10.53C12.2426 10.5756 10.5013 10.1858 8.93101 9.39543C7.36074 8.60506 6.01032 7.43862 5 5.99998C5 5.99998 1 15 10 19C7.94053 20.398 5.48716 21.0989 3 21C12 26 23 21 23 9.49998C22.9991 9.22144 22.9723 8.94358 22.92 8.66999C23.9406 7.66348 24.6608 6.3927 25 4.99998Z" stroke="currentColor" stroke-width="2" stroke-linecap="round" stroke-linejoin="round"></path>
  </symbol>
  <symbol fill="none" xmlns="http://www.w3.org/2000/svg" viewBox="0 0 12 24" id="facebook">
    <path d="M9.82868 3.98403H12V0.168036C10.9487 0.0544523 9.89239 -0.00162514 8.83542 3.58369e-05C5.69394 3.58369e-05 3.54572 1.99203 3.54572 5.64003V8.78402H0V13.056H3.54572V24H7.79596V13.056H11.3301L11.8614 8.78402H7.79596V6.06003C7.79596 4.80003 8.11935 3.98403 9.82868 3.98403Z" fill="currentColor"></path>
  </symbol>
    <symbol fill="none" xmlns="http://www.w3.org/2000/svg" viewBox="0 0 20 20" id="close">
    <path d="M15 5L5 15" stroke="currentColor" stroke-width="1.5" stroke-linecap="round" stroke-linejoin="round"/>
    <path d="M5 5L15 15" stroke="currentColor" stroke-width="1.5" stroke-linecap="round" stroke-linejoin="round"/>
  </symbol>
</svg>

